<?xml version="1.0" encoding="utf-8"?>
<!-- Generator: Adobe Illustrator 17.1.0, SVG Export Plug-In . SVG Version: 6.00 Build 0)  -->
<!DOCTYPE svg PUBLIC "-//W3C//DTD SVG 1.1//EN" "http://www.w3.org/Graphics/SVG/1.1/DTD/svg11.dtd">
<svg version="1.1"
	 id="svg4619" sodipodi:docname="cafe-18.svg" inkscape:version="0.48.2 r9819" xmlns:cc="http://creativecommons.org/ns#" xmlns:dc="http://purl.org/dc/elements/1.1/" xmlns:inkscape="http://www.inkscape.org/namespaces/inkscape" xmlns:sodipodi="http://sodipodi.sourceforge.net/DTD/sodipodi-0.dtd" xmlns:svg="http://www.w3.org/2000/svg" xmlns:rdf="http://www.w3.org/1999/02/22-rdf-syntax-ns#"
	 xmlns="http://www.w3.org/2000/svg" xmlns:xlink="http://www.w3.org/1999/xlink" x="0px" y="0px" viewBox="0 0 18 18"
	 enable-background="new 0 0 18 18" xml:space="preserve">
<sodipodi:namedview  inkscape:snap-nodes="false" inkscape:snap-bbox="true" inkscape:window-maximized="0" inkscape:window-y="146" inkscape:window-x="-6" inkscape:current-layer="layer1" inkscape:document-units="px" inkscape:pageopacity="0.0" inkscape:window-height="818" inkscape:window-width="1231" inkscape:guide-bbox="true" inkscape:pageshadow="2" id="base" borderopacity="1.0" inkscape:zoom="16" bordercolor="#666666" pagecolor="#ffffff" showguides="true" inkscape:cx="5.9619453" showgrid="true" inkscape:cy="11.948034">
	
		<inkscape:grid  type="xygrid" snapvisiblegridlinesonly="true" id="grid4627" spacingy="1px" spacingx="1px" enabled="true" visible="true" empspacing="5">
		</inkscape:grid>
	<sodipodi:guide  id="guide4659" orientation="0,1" position="7,18"></sodipodi:guide>
	<sodipodi:guide  id="guide4661" orientation="1,0" position="18,9"></sodipodi:guide>
	<sodipodi:guide  id="guide4663" orientation="0,1" position="16,17"></sodipodi:guide>
	<sodipodi:guide  id="guide4665" orientation="1,0" position="17,14"></sodipodi:guide>
	<sodipodi:guide  id="guide4667" orientation="1,0" position="0,16"></sodipodi:guide>
	<sodipodi:guide  id="guide4669" orientation="0,1" position="8,0"></sodipodi:guide>
	<sodipodi:guide  id="guide4671" orientation="1,0" position="2,10"></sodipodi:guide>
	<sodipodi:guide  id="guide4673" orientation="0,1" position="12,2"></sodipodi:guide>
</sodipodi:namedview>
<g id="layer1" transform="translate(0,-1034.3622)" inkscape:groupmode="layer" inkscape:label="Layer 1">
	
		<g id="restaurant-18" transform="translate(-341.99999,-15.999983)" inkscape:export-ydpi="89.996864" inkscape:export-xdpi="89.996864" inkscape:label="restaurant-18">
		<g id="g21606">
			
				<path id="path14875" inkscape:connector-curvature="0" sodipodi:nodetypes="cccsscsscccccccccccssscscsc" opacity="0.3" fill="#FFFFFF" stroke="#FFFFFF" stroke-width="2" stroke-linejoin="round" enable-background="new    " d="
				M348,1052.362h-1c0,1.296,0,3.204,0,4.5c0,0.778,1,0.722,1,1.5v7c0,0.389,0.5,1,1,1s1-0.5,1-1v-7c0-0.778,1-0.722,1-1.5
				c0-1.296,0-3.204,0-4.5h-1v3h-0.5v-3h-1v3H348V1052.362z M356,1052.362c-0.778,0-2.008,0.516-2.5,1.5
				c-0.389,0.778-0.5,2.5-0.5,3.5v3c0,0.5,0.611,1,1,1v4c0,0.5,0.5,1,1,1s1-0.5,1-1V1052.362z"/>
			<path id="rect6396-83" inkscape:connector-curvature="0" sodipodi:nodetypes="cccsscsscccccccccccssscscsc" fill="#FF0000" d="
				M348,1052.362h-1c0,1.296,0,3.204,0,4.5c0,0.778,1,0.722,1,1.5v7c0,0.389,0.5,1,1,1s1-0.5,1-1v-7c0-0.778,1-0.722,1-1.5
				c0-1.296,0-3.204,0-4.5h-1v3h-0.5v-3h-1v3H348V1052.362z M356,1052.362c-0.778,0-2.008,0.516-2.5,1.5
				c-0.389,0.778-0.5,2.5-0.5,3.5v3c0,0.5,0.611,1,1,1v4c0,0.5,0.5,1,1,1s1-0.5,1-1V1052.362z"/>
		</g>
		<rect id="rect22284-4" x="342" y="1050.362" fill="none" width="18" height="18"/>
	</g>
</g>
</svg>
